<svg width="179" height="176" viewBox="0 0 179 176" fill="none" xmlns="http://www.w3.org/2000/svg">
<g filter="url(#filter0_f_381_818)">
<path d="M11.6633 50.5117C11.5215 40.2914 13.9723 31.5651 19.0157 24.333C24.0591 17.1009 31.4631 13.4171 41.2278 13.2816C50.2113 13.157 57.6772 16.2764 63.6254 22.6398C69.6378 28.9372 72.7303 38.3028 72.9028 50.7365C73.0707 62.8447 70.2058 72.2278 64.308 78.8857C58.4744 85.4777 51.1961 88.8342 42.473 88.9552C33.8149 89.0753 26.5444 85.9532 20.6612 79.5889C14.8432 73.2237 11.8439 63.5313 11.6633 50.5117ZM41.884 25.3831C37.5225 25.4436 33.9032 27.382 31.0261 31.1983C28.2142 35.0137 26.8782 41.9665 27.0182 52.0567C27.1456 61.2355 28.7001 67.6924 31.6819 71.4275C34.6628 75.0974 38.3015 76.9026 42.5979 76.843C47.0246 76.7815 50.6439 74.8431 53.4558 71.0277C56.3328 67.2114 57.7018 60.2907 57.5627 50.2656C57.4345 41.0217 55.8799 34.5648 52.899 30.8949C49.9172 27.1598 46.2456 25.3226 41.884 25.3831ZM43.9066 164.138L120.126 12.1871L134.383 11.9893L58.456 163.936L43.9066 164.138ZM105.276 124.416C105.133 114.13 107.584 105.404 112.628 98.2369C117.671 91.0047 125.108 87.3205 134.938 87.1841C143.921 87.0595 151.387 90.1789 157.335 96.5423C163.348 102.84 166.44 112.205 166.613 124.639C166.781 136.747 163.916 146.13 158.018 152.788C152.184 159.38 144.873 162.737 136.085 162.859C127.427 162.979 120.157 159.857 114.274 153.493C108.455 147.062 105.455 137.37 105.276 124.416ZM135.594 99.2856C131.167 99.347 127.515 101.286 124.638 105.102C121.827 108.918 120.491 115.87 120.631 125.961C120.757 135.074 122.311 141.499 125.293 145.234C128.275 148.969 131.914 150.806 136.21 150.747C140.702 150.684 144.354 148.746 147.166 144.93C150.043 141.114 151.412 134.193 151.273 124.168C151.144 114.924 149.59 108.467 146.609 104.797C143.627 101.062 139.956 99.2251 135.594 99.2856Z" fill="black"/>
</g>
<defs>
<filter id="filter0_f_381_818" x="0.152344" y="0.563904" width="177.984" height="174.999" filterUnits="userSpaceOnUse" color-interpolation-filters="sRGB">
<feFlood flood-opacity="0" result="BackgroundImageFix"/>
<feBlend mode="normal" in="SourceGraphic" in2="BackgroundImageFix" result="shape"/>
<feGaussianBlur stdDeviation="5.5" result="effect1_foregroundBlur_381_818"/>
</filter>
</defs>
</svg>
