<svg width="69" height="30" viewBox="0 0 69 30" fill="none" xmlns="http://www.w3.org/2000/svg">
<mask id="path-1-outside-1_331_1302" maskUnits="userSpaceOnUse" x="0" y="-0.000488281" width="69" height="30" fill="black">
<rect fill="white" y="-0.000488281" width="69" height="30"/>
<path fill-rule="evenodd" clip-rule="evenodd" d="M67.4315 15.0676L53.3641 29.1351L52.6607 28.4317L65.5275 15.5648H1V14.5701H65.528L52.6608 1.70288L53.3641 0.999512L67.4316 15.067L67.4312 15.0673L67.4315 15.0676Z"/>
</mask>
<path fill-rule="evenodd" clip-rule="evenodd" d="M67.4315 15.0676L53.3641 29.1351L52.6607 28.4317L65.5275 15.5648H1V14.5701H65.528L52.6608 1.70288L53.3641 0.999512L67.4316 15.067L67.4312 15.0673L67.4315 15.0676Z" fill="white"/>
<path d="M53.3641 29.1351L53.0105 29.4886L53.3641 29.8422L53.7176 29.4886L53.3641 29.1351ZM67.4315 15.0676L67.7851 15.4212L68.1397 15.0665L67.784 14.713L67.4315 15.0676ZM52.6607 28.4317L52.3071 28.0781L51.9536 28.4317L52.3071 28.7852L52.6607 28.4317ZM65.5275 15.5648L65.8811 15.9184L66.7347 15.0648H65.5275V15.5648ZM1 15.5648H0.5V16.0648H1V15.5648ZM1 14.5701V14.0701H0.5V14.5701H1ZM65.528 14.5701V15.0701H66.7351L65.8815 14.2166L65.528 14.5701ZM52.6608 1.70288L52.3072 1.34933L51.9536 1.70289L52.3072 2.05644L52.6608 1.70288ZM53.3641 0.999512L53.7177 0.645958L53.3641 0.292404L53.0106 0.645959L53.3641 0.999512ZM67.4316 15.067L67.7856 15.42L68.1382 15.0665L67.7851 14.7134L67.4316 15.067ZM67.4312 15.0673L67.0772 14.7142L66.7235 15.0689L67.0787 15.4219L67.4312 15.0673ZM53.7176 29.4886L67.7851 15.4212L67.078 14.7141L53.0105 28.7815L53.7176 29.4886ZM52.3071 28.7852L53.0105 29.4886L53.7176 28.7815L53.0143 28.0781L52.3071 28.7852ZM65.174 15.2113L52.3071 28.0781L53.0143 28.7852L65.8811 15.9184L65.174 15.2113ZM65.5275 15.0648H1V16.0648H65.5275V15.0648ZM1.5 15.5648V14.5701H0.5V15.5648H1.5ZM1 15.0701H65.528V14.0701H1V15.0701ZM52.3072 2.05644L65.1744 14.9237L65.8815 14.2166L53.0143 1.34933L52.3072 2.05644ZM53.0106 0.645959L52.3072 1.34933L53.0143 2.05644L53.7177 1.35306L53.0106 0.645959ZM67.7851 14.7134L53.7177 0.645958L53.0106 1.35307L67.078 15.4205L67.7851 14.7134ZM67.7852 15.4204L67.7856 15.42L67.0775 14.7139L67.0772 14.7142L67.7852 15.4204ZM67.784 14.713L67.7837 14.7127L67.0787 15.4219L67.079 15.4223L67.784 14.713Z" fill="white" mask="url(#path-1-outside-1_331_1302)"/>
</svg>
