<svg width="218" height="28" viewBox="0 0 218 28" fill="none" xmlns="http://www.w3.org/2000/svg">
<path d="M11.29 27L0.58 0.959999H9.47L16.19 18.88L22 0.959999H30.68L36.63 18.355L43.21 0.959999H51.225L40.69 27H32.465L26.2 9.57L20.285 27H11.29ZM64.855 6.595L60.025 16.36H69.895L64.855 6.595ZM72.905 22.24H57.12L54.775 27H46.48L59.64 0.959999H70.21L84.14 27H75.355L72.905 22.24ZM91.1327 16.92L77.2027 0.959999H87.3177L95.4027 10.55L103.628 0.959999H112.833L99.2877 16.92V27H91.1327V16.92ZM130.037 0.504999C132.767 0.504999 135.112 0.714999 137.072 1.135C139.032 1.555 140.689 2.115 142.042 2.815C143.419 3.515 144.515 4.32 145.332 5.23C146.149 6.11667 146.779 7.03833 147.222 7.995C147.689 8.92833 147.992 9.87333 148.132 10.83C148.272 11.7633 148.342 12.615 148.342 13.385V14.435C148.342 15.205 148.272 16.0567 148.132 16.99C147.992 17.9233 147.7 18.88 147.257 19.86C146.814 20.8167 146.172 21.75 145.332 22.66C144.515 23.57 143.43 24.3867 142.077 25.11C140.724 25.81 139.055 26.3817 137.072 26.825C135.112 27.245 132.767 27.455 130.037 27.455H128.532C125.779 27.455 123.41 27.245 121.427 26.825C119.467 26.3817 117.81 25.81 116.457 25.11C115.104 24.3867 114.007 23.57 113.167 22.66C112.35 21.75 111.72 20.8167 111.277 19.86C110.834 18.88 110.542 17.9233 110.402 16.99C110.262 16.0567 110.192 15.205 110.192 14.435V13.385C110.192 12.615 110.262 11.7633 110.402 10.83C110.542 9.87333 110.834 8.92833 111.277 7.995C111.72 7.03833 112.35 6.11667 113.167 5.23C114.007 4.32 115.104 3.515 116.457 2.815C117.81 2.115 119.467 1.555 121.427 1.135C123.41 0.714999 125.779 0.504999 128.532 0.504999H130.037ZM139.802 13.63C139.802 12.8833 139.662 12.1133 139.382 11.32C139.125 10.5033 138.612 9.76833 137.842 9.115C137.072 8.43833 135.999 7.89 134.622 7.47C133.245 7.02667 131.46 6.805 129.267 6.805C127.027 6.805 125.219 7.02667 123.842 7.47C122.465 7.89 121.392 8.43833 120.622 9.115C119.875 9.76833 119.374 10.5033 119.117 11.32C118.86 12.1133 118.732 12.8833 118.732 13.63V14.05C118.732 14.7967 118.86 15.59 119.117 16.43C119.397 17.2467 119.922 18.005 120.692 18.705C121.462 19.405 122.535 19.9883 123.912 20.455C125.289 20.8983 127.074 21.12 129.267 21.12C131.46 21.12 133.234 20.8983 134.587 20.455C135.964 20.0117 137.037 19.4517 137.807 18.775C138.577 18.075 139.102 17.3167 139.382 16.5C139.662 15.66 139.802 14.8667 139.802 14.12V13.63ZM167.191 27.385C164.858 27.385 162.84 27.1633 161.136 26.72C159.433 26.2533 157.975 25.6467 156.761 24.9C155.571 24.1533 154.591 23.3017 153.821 22.345C153.075 21.365 152.48 20.3733 152.036 19.37C151.616 18.3433 151.325 17.3283 151.161 16.325C151.021 15.3217 150.951 14.4117 150.951 13.595V0.959999H159.141V13.105C159.141 13.945 159.258 14.8083 159.491 15.695C159.725 16.5817 160.156 17.3983 160.786 18.145C161.416 18.8683 162.291 19.4633 163.411 19.93C164.531 20.3967 165.978 20.63 167.751 20.63C169.501 20.63 170.925 20.3967 172.021 19.93C173.141 19.4633 174.016 18.8683 174.646 18.145C175.276 17.3983 175.708 16.5817 175.941 15.695C176.175 14.8083 176.291 13.945 176.291 13.105V0.959999H184.446V13.595C184.446 14.4117 184.353 15.3217 184.166 16.325C184.003 17.3283 183.7 18.3433 183.256 19.37C182.813 20.3733 182.206 21.365 181.436 22.345C180.69 23.3017 179.721 24.1533 178.531 24.9C177.341 25.6467 175.918 26.2533 174.261 26.72C172.605 27.1633 170.668 27.385 168.451 27.385H167.191ZM198.297 7.12H187.097V0.959999H217.757V7.12H206.522V27H198.297V7.12Z" fill="white"/>
</svg>
