<svg width="136" height="134" viewBox="0 0 136 134" fill="none" xmlns="http://www.w3.org/2000/svg">
<g filter="url(#filter0_f_985_887)">
<path d="M7.92447 43.8176C7.21138 36.1848 8.52537 29.5151 11.8664 23.8085C15.2075 18.1019 20.5243 14.9079 27.8168 14.2266C34.5258 13.5998 40.2929 15.4886 45.1181 19.8928C49.9873 24.2439 52.8556 31.0623 53.7232 40.348C54.568 49.3907 52.9834 56.5761 48.9694 61.9042C44.9995 67.1792 39.7573 70.121 33.2427 70.7296C26.7767 71.3337 21.1554 69.4313 16.3789 65.0225C11.651 60.6092 8.83286 53.5409 7.92447 43.8176ZM29.0262 23.2352C25.7689 23.5395 23.1781 25.2038 21.2538 28.2279C19.3781 31.2475 18.7923 36.5251 19.4963 44.0606C20.1367 50.9155 21.6825 55.6507 24.1337 58.266C26.5803 60.8328 29.4079 61.9663 32.6166 61.6665C35.9225 61.3576 38.5133 59.6934 40.389 56.6738C42.3133 53.6497 42.9258 48.3941 42.2263 40.9072C41.5813 34.0037 40.0355 29.2685 37.5889 26.7018C35.1377 24.0864 32.2835 22.9309 29.0262 23.2352ZM38.7804 126.854L86.7399 8.72174L97.3869 7.72705L49.6461 125.839L38.7804 126.854ZM82.303 93.5109C81.5854 85.8295 82.8994 79.1598 86.245 73.5018C89.5861 67.7951 94.9271 64.5989 102.268 63.9131C108.977 63.2863 114.744 65.175 119.57 69.5793C124.439 73.9303 127.307 80.7488 128.175 90.0345C129.019 99.0771 127.435 106.263 123.421 111.591C119.451 116.866 114.184 119.81 107.621 120.423C101.155 121.027 95.534 119.125 90.7574 114.716C86.025 110.254 83.2069 103.186 82.303 93.5109ZM103.478 72.9217C100.172 73.2305 97.5566 74.897 95.6323 77.9212C93.7566 80.9408 93.1708 86.2183 93.8748 93.7539C94.5107 100.56 96.0542 105.271 98.5054 107.886C100.957 110.502 103.786 111.66 106.995 111.36C110.35 111.046 112.965 109.38 114.84 106.36C116.765 103.336 117.377 98.0806 116.678 90.5937C116.033 83.6901 114.487 78.955 112.04 76.3882C109.589 73.7729 106.735 72.6174 103.478 72.9217Z" fill="black"/>
</g>
<defs>
<filter id="filter0_f_985_887" x="0.736328" y="0.727051" width="134.658" height="133.127" filterUnits="userSpaceOnUse" color-interpolation-filters="sRGB">
<feFlood flood-opacity="0" result="BackgroundImageFix"/>
<feBlend mode="normal" in="SourceGraphic" in2="BackgroundImageFix" result="shape"/>
<feGaussianBlur stdDeviation="3.5" result="effect1_foregroundBlur_985_887"/>
</filter>
</defs>
</svg>
