<svg width="29" height="22" viewBox="0 0 29 22" fill="none" xmlns="http://www.w3.org/2000/svg">
<path d="M1 14.6989V7.3001C1 6.58259 1.5376 6.00008 2.2 6.00008H6.5032C6.662 5.9995 6.81904 5.96541 6.96485 5.89989C7.11066 5.83436 7.24222 5.73875 7.3516 5.61883L10.9516 1.38377C11.7076 0.56376 13 1.14502 13 2.30378V19.6965C13 20.864 11.692 21.4403 10.9408 20.604L7.3528 16.3927C7.24311 16.2694 7.11022 16.1709 6.9624 16.1034C6.81458 16.0358 6.655 16.0007 6.4936 16.0002H2.2C1.5376 16.0002 1 15.4177 1 14.6989Z" stroke="black" stroke-width="2" stroke-linecap="round" stroke-linejoin="round"/>
<rect x="17" y="6.41422" width="2" height="14.1925" rx="1" transform="rotate(-45 17 6.41422)" fill="black"/>
<rect width="2" height="14.1925" rx="1" transform="matrix(-0.707107 -0.707107 -0.707107 0.707107 28.4492 6.41422)" fill="black"/>
</svg>
