<svg width="26" height="22" viewBox="0 0 26 22" fill="none" xmlns="http://www.w3.org/2000/svg">
<path d="M21.4 2.25003C26.1856 7.0101 26.2144 15.0215 21.4 19.7503M1 14.6989V7.3001C1 6.58259 1.5376 6.00008 2.2 6.00008H6.5032C6.662 5.9995 6.81904 5.96541 6.96485 5.89989C7.11066 5.83436 7.24222 5.73875 7.3516 5.61883L10.9516 1.38377C11.7076 0.56376 13 1.14502 13 2.30378V19.6965C13 20.864 11.692 21.4403 10.9408 20.604L7.3528 16.3927C7.24311 16.2694 7.11022 16.1709 6.9624 16.1034C6.81458 16.0358 6.655 16.0007 6.4936 16.0002H2.2C1.5376 16.0002 1 15.4177 1 14.6989ZM17.8 6.62509C19.3996 8.84762 19.3996 13.1527 17.8 15.3752V6.62509Z" stroke="black" stroke-width="2" stroke-linecap="round" stroke-linejoin="round"/>
</svg>
